<svg width="25" height="24" viewBox="0 0 25 24" fill="none" xmlns="http://www.w3.org/2000/svg">
<ellipse cx="12.4999" cy="7.36842" rx="4.02542" ry="4" fill="#A6A6A6"/>
<path fill-rule="evenodd" clip-rule="evenodd" d="M21.7326 16.859C19.8931 20.0247 16.4497 22.1579 12.4999 22.1579C8.55016 22.1579 5.10682 20.0247 3.26726 16.859C3.55936 16.5778 3.87446 16.2855 4.21385 15.9818C7.48099 13.0578 10.2603 12.149 12.4999 12.2137C14.7396 12.149 17.5189 13.0578 20.786 15.9818C21.1254 16.2855 21.4405 16.5778 21.7326 16.859ZM22.4626 17.5878C23.5349 15.8361 24.1525 13.7792 24.1525 11.5789C24.1525 5.18407 18.9355 0 12.4999 0C6.06442 0 0.847398 5.18407 0.847398 11.5789C0.847398 13.7792 1.46498 15.8361 2.53729 17.5878C-4.02478 24.4052 4.21385 23.9953 4.21385 23.9953H5.93214H19.0677H20.786C20.786 23.9953 29.0247 24.4052 22.4626 17.5878ZM22.4626 17.5878C22.2371 17.3535 21.9941 17.1107 21.7326 16.859C22.6359 15.3045 23.1525 13.5011 23.1525 11.5789C23.1525 5.74232 18.3892 1 12.4999 1C6.61072 1 1.8474 5.74232 1.8474 11.5789C1.8474 13.5011 2.36399 15.3045 3.26726 16.859C3.00583 17.1107 2.76282 17.3535 2.53729 17.5878C4.5816 20.9274 8.27864 23.1579 12.4999 23.1579C16.7212 23.1579 20.4183 20.9274 22.4626 17.5878Z" fill="#A6A6A6"/>
</svg>
